{
	"asset":{
		"generator":"Khronos glTF Blender I/O v4.4.55",
		"version":"2.0"
	},
	"scene":0,
	"scenes":[
		{
			"name":"Scene",
			"nodes":[
				0,
				1,
				2,
				3,
				4,
				5,
				8,
				9,
				10,
				11,
				12,
				13,
				14,
				15,
				16
			]
		}
	],
	"nodes":[
		{
			"mesh":0,
			"name":"floor_kitchen_small"
		},
		{
			"mesh":1,
			"name":"crate_carrots",
			"translation":[
				6.941500186920166,
				0.4596974849700928,
				-4.26253604888916
			]
		},
		{
			"mesh":2,
			"name":"dishrack",
			"translation":[
				0.7438793182373047,
				1.4479379653930664,
				-12.848743438720703
			]
		},
		{
			"mesh":3,
			"name":"dishrack_plates",
			"translation":[
				0.7262194752693176,
				1.3939062356948853,
				-11.285653114318848
			]
		},
		{
			"mesh":4,
			"name":"food_burger",
			"translation":[
				6.930379390716553,
				1.370387315750122,
				-5.9626145362854
			]
		},
		{
			"mesh":5,
			"name":"food_dinner",
			"translation":[
				6.630310535430908,
				1.3543012142181396,
				-7.047393321990967
			]
		},
		{
			"mesh":6,
			"name":"fridge_A_door_bottom",
			"translation":[
				0.8500062227249146,
				0.7999973297119141,
				0.5000000596046448
			]
		},
		{
			"mesh":7,
			"name":"fridge_A_door_top",
			"translation":[
				0.8500062227249146,
				1.8999977111816406,
				0.5000000596046448
			]
		},
		{
			"children":[
				6,
				7
			],
			"mesh":8,
			"name":"fridge_A",
			"rotation":[
				0,
				0.7071068286895752,
				0,
				0.7071068286895752
			],
			"translation":[
				0.4830799102783203,
				0.43750953674316406,
				-0.16752736270427704
			]
		},
		{
			"mesh":9,
			"name":"kitchencabinet_corner_half",
			"rotation":[
				0,
				0.7071068286895752,
				0,
				0.7071067094802856
			],
			"translation":[
				-0.5487995743751526,
				0.47437506914138794,
				-13.39321231842041
			]
		},
		{
			"mesh":10,
			"name":"wall",
			"rotation":[
				0,
				0.7071068286895752,
				0,
				0.7071068286895752
			],
			"translation":[
				-0.7300601005554199,
				0.47983279824256897,
				-1.0016926527023315
			]
		},
		{
			"mesh":11,
			"name":"kitchentable_A_large",
			"rotation":[
				0,
				0.7071068286895752,
				0,
				0.7071068286895752
			],
			"translation":[
				7.226589202880859,
				0.41009947657585144,
				-6.83649206161499
			]
		},
		{
			"mesh":12,
			"name":"kitchencabinet_half",
			"rotation":[
				0,
				0.7071068286895752,
				0,
				0.7071068286895752
			],
			"translation":[
				0.5151416063308716,
				-2.5558102130889893,
				-7.155558109283447
			]
		},
		{
			"mesh":13,
			"name":"crate_lid",
			"translation":[
				0.6166729927062988,
				1.46956205368042,
				-9.479264259338379
			]
		},
		{
			"mesh":14,
			"name":"stove_multi_decorated",
			"rotation":[
				0,
				0.7071068286895752,
				0,
				0.7071068286895752
			],
			"translation":[
				0.5683879852294922,
				1.4833564758300781,
				-7.146686553955078
			]
		},
		{
			"mesh":15,
			"name":"wall.001",
			"translation":[
				1.0282862186431885,
				0.47983279824256897,
				-14.665655136108398
			]
		},
		{
			"mesh":16,
			"name":"kitchentable_sink_large",
			"translation":[
				2.874934196472168,
				0.35993051528930664,
				-13.124959945678711
			]
		}
	],
	"materials":[
		{
			"name":"restaurant.003",
			"pbrMetallicRoughness":{
				"baseColorTexture":{
					"index":0
				},
				"metallicFactor":0,
				"roughnessFactor":0.5
			}
		},
		{
			"name":"restaurant.008",
			"pbrMetallicRoughness":{
				"baseColorTexture":{
					"index":1
				},
				"metallicFactor":0,
				"roughnessFactor":0.5
			}
		},
		{
			"name":"restaurant.010",
			"pbrMetallicRoughness":{
				"baseColorTexture":{
					"index":2
				},
				"metallicFactor":0,
				"roughnessFactor":0.5
			}
		},
		{
			"name":"restaurant.011",
			"pbrMetallicRoughness":{
				"baseColorTexture":{
					"index":3
				},
				"metallicFactor":0,
				"roughnessFactor":0.5
			}
		},
		{
			"name":"restaurant.013",
			"pbrMetallicRoughness":{
				"baseColorTexture":{
					"index":4
				},
				"metallicFactor":0,
				"roughnessFactor":0.5
			}
		},
		{
			"name":"restaurant.014",
			"pbrMetallicRoughness":{
				"baseColorTexture":{
					"index":5
				},
				"metallicFactor":0,
				"roughnessFactor":0.5
			}
		},
		{
			"name":"restaurant.017",
			"pbrMetallicRoughness":{
				"baseColorTexture":{
					"index":6
				},
				"metallicFactor":0,
				"roughnessFactor":0.5
			}
		},
		{
			"name":"restaurant.021",
			"pbrMetallicRoughness":{
				"baseColorTexture":{
					"index":7
				},
				"metallicFactor":0,
				"roughnessFactor":0.5
			}
		},
		{
			"name":"restaurant.023",
			"pbrMetallicRoughness":{
				"baseColorTexture":{
					"index":8
				},
				"metallicFactor":0,
				"roughnessFactor":0.5
			}
		},
		{
			"name":"restaurant.030",
			"pbrMetallicRoughness":{
				"baseColorTexture":{
					"index":9
				},
				"metallicFactor":0,
				"roughnessFactor":0.5
			}
		},
		{
			"name":"restaurant.033",
			"pbrMetallicRoughness":{
				"baseColorTexture":{
					"index":10
				},
				"metallicFactor":0,
				"roughnessFactor":0.5
			}
		},
		{
			"name":"restaurant.036",
			"pbrMetallicRoughness":{
				"baseColorTexture":{
					"index":11
				},
				"metallicFactor":0,
				"roughnessFactor":0.5
			}
		},
		{
			"name":"restaurant.042",
			"pbrMetallicRoughness":{
				"baseColorTexture":{
					"index":12
				},
				"metallicFactor":0,
				"roughnessFactor":0.5
			}
		},
		{
			"name":"restaurant.054",
			"pbrMetallicRoughness":{
				"baseColorTexture":{
					"index":13
				},
				"metallicFactor":0,
				"roughnessFactor":0.5
			}
		},
		{
			"name":"restaurant.059",
			"pbrMetallicRoughness":{
				"baseColorTexture":{
					"index":14
				},
				"metallicFactor":0,
				"roughnessFactor":0.5
			}
		}
	],
	"meshes":[
		{
			"name":"Plane.008",
			"primitives":[
				{
					"attributes":{
						"POSITION":0,
						"NORMAL":1,
						"TEXCOORD_0":2
					},
					"indices":3,
					"material":0
				}
			]
		},
		{
			"name":"Cube.229",
			"primitives":[
				{
					"attributes":{
						"POSITION":4,
						"NORMAL":5,
						"TEXCOORD_0":6
					},
					"indices":7,
					"material":1
				}
			]
		},
		{
			"name":"Cylinder.153",
			"primitives":[
				{
					"attributes":{
						"POSITION":8,
						"NORMAL":9,
						"TEXCOORD_0":10
					},
					"indices":11,
					"material":2
				}
			]
		},
		{
			"name":"Cylinder.154",
			"primitives":[
				{
					"attributes":{
						"POSITION":12,
						"NORMAL":13,
						"TEXCOORD_0":14
					},
					"indices":15,
					"material":3
				}
			]
		},
		{
			"name":"Cylinder.074",
			"primitives":[
				{
					"attributes":{
						"POSITION":16,
						"NORMAL":17,
						"TEXCOORD_0":18
					},
					"indices":19,
					"material":4
				}
			]
		},
		{
			"name":"Cylinder.116",
			"primitives":[
				{
					"attributes":{
						"POSITION":20,
						"NORMAL":21,
						"TEXCOORD_0":22
					},
					"indices":23,
					"material":5
				}
			]
		},
		{
			"name":"Cube.618",
			"primitives":[
				{
					"attributes":{
						"POSITION":24,
						"NORMAL":25,
						"TEXCOORD_0":26
					},
					"indices":27,
					"material":6
				}
			]
		},
		{
			"name":"Cube.617",
			"primitives":[
				{
					"attributes":{
						"POSITION":28,
						"NORMAL":29,
						"TEXCOORD_0":30
					},
					"indices":31,
					"material":6
				}
			]
		},
		{
			"name":"Cube.616",
			"primitives":[
				{
					"attributes":{
						"POSITION":32,
						"NORMAL":33,
						"TEXCOORD_0":34
					},
					"indices":35,
					"material":6
				}
			]
		},
		{
			"name":"Cube.217",
			"primitives":[
				{
					"attributes":{
						"POSITION":36,
						"NORMAL":37,
						"TEXCOORD_0":38
					},
					"indices":39,
					"material":7
				}
			]
		},
		{
			"name":"Cube.148",
			"primitives":[
				{
					"attributes":{
						"POSITION":40,
						"NORMAL":41,
						"TEXCOORD_0":42
					},
					"indices":43,
					"material":8
				}
			]
		},
		{
			"name":"Cube.180",
			"primitives":[
				{
					"attributes":{
						"POSITION":44,
						"NORMAL":45,
						"TEXCOORD_0":46
					},
					"indices":47,
					"material":9
				}
			]
		},
		{
			"name":"Cube.222",
			"primitives":[
				{
					"attributes":{
						"POSITION":48,
						"NORMAL":49,
						"TEXCOORD_0":50
					},
					"indices":51,
					"material":10
				}
			]
		},
		{
			"name":"Cube.003",
			"primitives":[
				{
					"attributes":{
						"POSITION":52,
						"NORMAL":53,
						"TEXCOORD_0":54
					},
					"indices":55,
					"material":11
				}
			]
		},
		{
			"name":"Cube.005",
			"primitives":[
				{
					"attributes":{
						"POSITION":56,
						"NORMAL":57,
						"TEXCOORD_0":58
					},
					"indices":59,
					"material":12
				}
			]
		},
		{
			"name":"Cube.006",
			"primitives":[
				{
					"attributes":{
						"POSITION":60,
						"NORMAL":61,
						"TEXCOORD_0":62
					},
					"indices":43,
					"material":13
				}
			]
		},
		{
			"name":"Cube.007",
			"primitives":[
				{
					"attributes":{
						"POSITION":63,
						"NORMAL":64,
						"TEXCOORD_0":65
					},
					"indices":66,
					"material":14
				}
			]
		}
	],
	"textures":[
		{
			"sampler":0,
			"source":0
		},
		{
			"sampler":0,
			"source":0
		},
		{
			"sampler":0,
			"source":0
		},
		{
			"sampler":0,
			"source":0
		},
		{
			"sampler":0,
			"source":0
		},
		{
			"sampler":0,
			"source":0
		},
		{
			"sampler":0,
			"source":0
		},
		{
			"sampler":0,
			"source":0
		},
		{
			"sampler":0,
			"source":0
		},
		{
			"sampler":0,
			"source":0
		},
		{
			"sampler":0,
			"source":0
		},
		{
			"sampler":0,
			"source":0
		},
		{
			"sampler":0,
			"source":0
		},
		{
			"sampler":0,
			"source":0
		},
		{
			"sampler":0,
			"source":0
		}
	],
	"images":[
		{
			"mimeType":"image/png",
			"name":"restaurantbits_texture",
			"uri":"restaurantbits_texture.png"
		}
	],
	"accessors":[
		{
			"bufferView":0,
			"componentType":5126,
			"count":5900,
			"max":[
				15,
				0.5,
				1
			],
			"min":[
				-1,
				0,
				-15
			],
			"type":"VEC3"
		},
		{
			"bufferView":1,
			"componentType":5126,
			"count":5900,
			"type":"VEC3"
		},
		{
			"bufferView":2,
			"componentType":5126,
			"count":5900,
			"type":"VEC2"
		},
		{
			"bufferView":3,
			"componentType":5123,
			"count":9216,
			"type":"SCALAR"
		},
		{
			"bufferView":4,
			"componentType":5126,
			"count":1672,
			"max":[
				1,
				0.9431999921798706,
				1.000002145767212
			],
			"min":[
				-1.000000238418579,
				-1.9073486328125e-06,
				-1.0000025033950806
			],
			"type":"VEC3"
		},
		{
			"bufferView":5,
			"componentType":5126,
			"count":1672,
			"type":"VEC3"
		},
		{
			"bufferView":6,
			"componentType":5126,
			"count":1672,
			"type":"VEC2"
		},
		{
			"bufferView":7,
			"componentType":5123,
			"count":5256,
			"type":"SCALAR"
		},
		{
			"bufferView":8,
			"componentType":5126,
			"count":372,
			"max":[
				0.6000038385391235,
				0.6000000238418579,
				0.6000000238418579
			],
			"min":[
				-0.5999962091445923,
				0,
				-0.6000000238418579
			],
			"type":"VEC3"
		},
		{
			"bufferView":9,
			"componentType":5126,
			"count":372,
			"type":"VEC3"
		},
		{
			"bufferView":10,
			"componentType":5126,
			"count":372,
			"type":"VEC2"
		},
		{
			"bufferView":11,
			"componentType":5123,
			"count":720,
			"type":"SCALAR"
		},
		{
			"bufferView":12,
			"componentType":5126,
			"count":1020,
			"max":[
				0.6000038385391235,
				1.0951485633850098,
				0.6000000238418579
			],
			"min":[
				-0.5999962091445923,
				0,
				-0.6000000238418579
			],
			"type":"VEC3"
		},
		{
			"bufferView":13,
			"componentType":5126,
			"count":1020,
			"type":"VEC3"
		},
		{
			"bufferView":14,
			"componentType":5126,
			"count":1020,
			"type":"VEC2"
		},
		{
			"bufferView":15,
			"componentType":5123,
			"count":2640,
			"type":"SCALAR"
		},
		{
			"bufferView":16,
			"componentType":5126,
			"count":1719,
			"max":[
				0.4750000238418579,
				0.8571995496749878,
				0.4749999940395355
			],
			"min":[
				-0.4749999940395355,
				-3.725290298461914e-09,
				-0.4749999940395355
			],
			"type":"VEC3"
		},
		{
			"bufferView":17,
			"componentType":5126,
			"count":1719,
			"type":"VEC3"
		},
		{
			"bufferView":18,
			"componentType":5126,
			"count":1719,
			"type":"VEC2"
		},
		{
			"bufferView":19,
			"componentType":5123,
			"count":4866,
			"type":"SCALAR"
		},
		{
			"bufferView":20,
			"componentType":5126,
			"count":1174,
			"max":[
				0.5138571858406067,
				0.9078318476676941,
				0.4749999940395355
			],
			"min":[
				-0.5235955715179443,
				-3.725290298461914e-09,
				-0.4749999940395355
			],
			"type":"VEC3"
		},
		{
			"bufferView":21,
			"componentType":5126,
			"count":1174,
			"type":"VEC3"
		},
		{
			"bufferView":22,
			"componentType":5126,
			"count":1174,
			"type":"VEC2"
		},
		{
			"bufferView":23,
			"componentType":5123,
			"count":3588,
			"type":"SCALAR"
		},
		{
			"bufferView":24,
			"componentType":5126,
			"count":210,
			"max":[
				0.149993896484375,
				0.699999988079071,
				0.7400325536727905
			],
			"min":[
				-1.850006103515625,
				-0.7999981045722961,
				0
			],
			"type":"VEC3"
		},
		{
			"bufferView":25,
			"componentType":5126,
			"count":210,
			"type":"VEC3"
		},
		{
			"bufferView":26,
			"componentType":5126,
			"count":210,
			"type":"VEC2"
		},
		{
			"bufferView":27,
			"componentType":5123,
			"count":564,
			"type":"SCALAR"
		},
		{
			"bufferView":28,
			"componentType":5126,
			"count":228,
			"max":[
				0.149993896484375,
				0.6000019311904907,
				0.7400325536727905
			],
			"min":[
				-1.850006103515625,
				-0.4000000059604645,
				0
			],
			"type":"VEC3"
		},
		{
			"bufferView":29,
			"componentType":5126,
			"count":228,
			"type":"VEC3"
		},
		{
			"bufferView":30,
			"componentType":5126,
			"count":228,
			"type":"VEC2"
		},
		{
			"bufferView":31,
			"componentType":5123,
			"count":594,
			"type":"SCALAR"
		},
		{
			"bufferView":32,
			"componentType":5126,
			"count":310,
			"max":[
				1,
				2.5,
				0.5
			],
			"min":[
				-1,
				0,
				-1
			],
			"type":"VEC3"
		},
		{
			"bufferView":33,
			"componentType":5126,
			"count":310,
			"type":"VEC3"
		},
		{
			"bufferView":34,
			"componentType":5126,
			"count":310,
			"type":"VEC2"
		},
		{
			"bufferView":35,
			"componentType":5123,
			"count":684,
			"type":"SCALAR"
		},
		{
			"bufferView":36,
			"componentType":5126,
			"count":234,
			"max":[
				1,
				4,
				2
			],
			"min":[
				-1,
				3,
				0
			],
			"type":"VEC3"
		},
		{
			"bufferView":37,
			"componentType":5126,
			"count":234,
			"type":"VEC3"
		},
		{
			"bufferView":38,
			"componentType":5126,
			"count":234,
			"type":"VEC2"
		},
		{
			"bufferView":39,
			"componentType":5123,
			"count":516,
			"type":"SCALAR"
		},
		{
			"bufferView":40,
			"componentType":5126,
			"count":608,
			"max":[
				14.000001907348633,
				4,
				0.25
			],
			"min":[
				-2.000000476837158,
				0,
				-0.2500004470348358
			],
			"type":"VEC3"
		},
		{
			"bufferView":41,
			"componentType":5126,
			"count":608,
			"type":"VEC3"
		},
		{
			"bufferView":42,
			"componentType":5126,
			"count":608,
			"type":"VEC2"
		},
		{
			"bufferView":43,
			"componentType":5123,
			"count":912,
			"type":"SCALAR"
		},
		{
			"bufferView":44,
			"componentType":5126,
			"count":334,
			"max":[
				1.5,
				1,
				1
			],
			"min":[
				-1.5,
				-0.0037517547607421875,
				-1
			],
			"type":"VEC3"
		},
		{
			"bufferView":45,
			"componentType":5126,
			"count":334,
			"type":"VEC3"
		},
		{
			"bufferView":46,
			"componentType":5126,
			"count":334,
			"type":"VEC2"
		},
		{
			"bufferView":47,
			"componentType":5123,
			"count":708,
			"type":"SCALAR"
		},
		{
			"bufferView":48,
			"componentType":5126,
			"count":1616,
			"max":[
				7,
				4,
				1.041903018951416
			],
			"min":[
				-1,
				3,
				-0.9419029951095581
			],
			"type":"VEC3"
		},
		{
			"bufferView":49,
			"componentType":5126,
			"count":1616,
			"type":"VEC3"
		},
		{
			"bufferView":50,
			"componentType":5126,
			"count":1616,
			"type":"VEC2"
		},
		{
			"bufferView":51,
			"componentType":5123,
			"count":3744,
			"type":"SCALAR"
		},
		{
			"bufferView":52,
			"componentType":5126,
			"count":360,
			"max":[
				1,
				0.19999998807907104,
				1
			],
			"min":[
				-1,
				5.960464477539063e-08,
				-1
			],
			"type":"VEC3"
		},
		{
			"bufferView":53,
			"componentType":5126,
			"count":360,
			"type":"VEC3"
		},
		{
			"bufferView":54,
			"componentType":5126,
			"count":360,
			"type":"VEC2"
		},
		{
			"bufferView":55,
			"componentType":5123,
			"count":492,
			"type":"SCALAR"
		},
		{
			"bufferView":56,
			"componentType":5126,
			"count":2823,
			"max":[
				1.2000000476837158,
				1.7159216403961182,
				1.2578555345535278
			],
			"min":[
				-1,
				0,
				-1.0300002098083496
			],
			"type":"VEC3"
		},
		{
			"bufferView":57,
			"componentType":5126,
			"count":2823,
			"type":"VEC3"
		},
		{
			"bufferView":58,
			"componentType":5126,
			"count":2823,
			"type":"VEC2"
		},
		{
			"bufferView":59,
			"componentType":5123,
			"count":6810,
			"type":"SCALAR"
		},
		{
			"bufferView":60,
			"componentType":5126,
			"count":608,
			"max":[
				14.000001907348633,
				4,
				0.25
			],
			"min":[
				-2.000000476837158,
				0,
				-0.2500004470348358
			],
			"type":"VEC3"
		},
		{
			"bufferView":61,
			"componentType":5126,
			"count":608,
			"type":"VEC3"
		},
		{
			"bufferView":62,
			"componentType":5126,
			"count":608,
			"type":"VEC2"
		},
		{
			"bufferView":63,
			"componentType":5126,
			"count":1062,
			"max":[
				1.5,
				1.8016260862350464,
				1
			],
			"min":[
				-1.5,
				0,
				-1
			],
			"type":"VEC3"
		},
		{
			"bufferView":64,
			"componentType":5126,
			"count":1062,
			"type":"VEC3"
		},
		{
			"bufferView":65,
			"componentType":5126,
			"count":1062,
			"type":"VEC2"
		},
		{
			"bufferView":66,
			"componentType":5123,
			"count":2538,
			"type":"SCALAR"
		}
	],
	"bufferViews":[
		{
			"buffer":0,
			"byteLength":70800,
			"byteOffset":0,
			"target":34962
		},
		{
			"buffer":0,
			"byteLength":70800,
			"byteOffset":70800,
			"target":34962
		},
		{
			"buffer":0,
			"byteLength":47200,
			"byteOffset":141600,
			"target":34962
		},
		{
			"buffer":0,
			"byteLength":18432,
			"byteOffset":188800,
			"target":34963
		},
		{
			"buffer":0,
			"byteLength":20064,
			"byteOffset":207232,
			"target":34962
		},
		{
			"buffer":0,
			"byteLength":20064,
			"byteOffset":227296,
			"target":34962
		},
		{
			"buffer":0,
			"byteLength":13376,
			"byteOffset":247360,
			"target":34962
		},
		{
			"buffer":0,
			"byteLength":10512,
			"byteOffset":260736,
			"target":34963
		},
		{
			"buffer":0,
			"byteLength":4464,
			"byteOffset":271248,
			"target":34962
		},
		{
			"buffer":0,
			"byteLength":4464,
			"byteOffset":275712,
			"target":34962
		},
		{
			"buffer":0,
			"byteLength":2976,
			"byteOffset":280176,
			"target":34962
		},
		{
			"buffer":0,
			"byteLength":1440,
			"byteOffset":283152,
			"target":34963
		},
		{
			"buffer":0,
			"byteLength":12240,
			"byteOffset":284592,
			"target":34962
		},
		{
			"buffer":0,
			"byteLength":12240,
			"byteOffset":296832,
			"target":34962
		},
		{
			"buffer":0,
			"byteLength":8160,
			"byteOffset":309072,
			"target":34962
		},
		{
			"buffer":0,
			"byteLength":5280,
			"byteOffset":317232,
			"target":34963
		},
		{
			"buffer":0,
			"byteLength":20628,
			"byteOffset":322512,
			"target":34962
		},
		{
			"buffer":0,
			"byteLength":20628,
			"byteOffset":343140,
			"target":34962
		},
		{
			"buffer":0,
			"byteLength":13752,
			"byteOffset":363768,
			"target":34962
		},
		{
			"buffer":0,
			"byteLength":9732,
			"byteOffset":377520,
			"target":34963
		},
		{
			"buffer":0,
			"byteLength":14088,
			"byteOffset":387252,
			"target":34962
		},
		{
			"buffer":0,
			"byteLength":14088,
			"byteOffset":401340,
			"target":34962
		},
		{
			"buffer":0,
			"byteLength":9392,
			"byteOffset":415428,
			"target":34962
		},
		{
			"buffer":0,
			"byteLength":7176,
			"byteOffset":424820,
			"target":34963
		},
		{
			"buffer":0,
			"byteLength":2520,
			"byteOffset":431996,
			"target":34962
		},
		{
			"buffer":0,
			"byteLength":2520,
			"byteOffset":434516,
			"target":34962
		},
		{
			"buffer":0,
			"byteLength":1680,
			"byteOffset":437036,
			"target":34962
		},
		{
			"buffer":0,
			"byteLength":1128,
			"byteOffset":438716,
			"target":34963
		},
		{
			"buffer":0,
			"byteLength":2736,
			"byteOffset":439844,
			"target":34962
		},
		{
			"buffer":0,
			"byteLength":2736,
			"byteOffset":442580,
			"target":34962
		},
		{
			"buffer":0,
			"byteLength":1824,
			"byteOffset":445316,
			"target":34962
		},
		{
			"buffer":0,
			"byteLength":1188,
			"byteOffset":447140,
			"target":34963
		},
		{
			"buffer":0,
			"byteLength":3720,
			"byteOffset":448328,
			"target":34962
		},
		{
			"buffer":0,
			"byteLength":3720,
			"byteOffset":452048,
			"target":34962
		},
		{
			"buffer":0,
			"byteLength":2480,
			"byteOffset":455768,
			"target":34962
		},
		{
			"buffer":0,
			"byteLength":1368,
			"byteOffset":458248,
			"target":34963
		},
		{
			"buffer":0,
			"byteLength":2808,
			"byteOffset":459616,
			"target":34962
		},
		{
			"buffer":0,
			"byteLength":2808,
			"byteOffset":462424,
			"target":34962
		},
		{
			"buffer":0,
			"byteLength":1872,
			"byteOffset":465232,
			"target":34962
		},
		{
			"buffer":0,
			"byteLength":1032,
			"byteOffset":467104,
			"target":34963
		},
		{
			"buffer":0,
			"byteLength":7296,
			"byteOffset":468136,
			"target":34962
		},
		{
			"buffer":0,
			"byteLength":7296,
			"byteOffset":475432,
			"target":34962
		},
		{
			"buffer":0,
			"byteLength":4864,
			"byteOffset":482728,
			"target":34962
		},
		{
			"buffer":0,
			"byteLength":1824,
			"byteOffset":487592,
			"target":34963
		},
		{
			"buffer":0,
			"byteLength":4008,
			"byteOffset":489416,
			"target":34962
		},
		{
			"buffer":0,
			"byteLength":4008,
			"byteOffset":493424,
			"target":34962
		},
		{
			"buffer":0,
			"byteLength":2672,
			"byteOffset":497432,
			"target":34962
		},
		{
			"buffer":0,
			"byteLength":1416,
			"byteOffset":500104,
			"target":34963
		},
		{
			"buffer":0,
			"byteLength":19392,
			"byteOffset":501520,
			"target":34962
		},
		{
			"buffer":0,
			"byteLength":19392,
			"byteOffset":520912,
			"target":34962
		},
		{
			"buffer":0,
			"byteLength":12928,
			"byteOffset":540304,
			"target":34962
		},
		{
			"buffer":0,
			"byteLength":7488,
			"byteOffset":553232,
			"target":34963
		},
		{
			"buffer":0,
			"byteLength":4320,
			"byteOffset":560720,
			"target":34962
		},
		{
			"buffer":0,
			"byteLength":4320,
			"byteOffset":565040,
			"target":34962
		},
		{
			"buffer":0,
			"byteLength":2880,
			"byteOffset":569360,
			"target":34962
		},
		{
			"buffer":0,
			"byteLength":984,
			"byteOffset":572240,
			"target":34963
		},
		{
			"buffer":0,
			"byteLength":33876,
			"byteOffset":573224,
			"target":34962
		},
		{
			"buffer":0,
			"byteLength":33876,
			"byteOffset":607100,
			"target":34962
		},
		{
			"buffer":0,
			"byteLength":22584,
			"byteOffset":640976,
			"target":34962
		},
		{
			"buffer":0,
			"byteLength":13620,
			"byteOffset":663560,
			"target":34963
		},
		{
			"buffer":0,
			"byteLength":7296,
			"byteOffset":677180,
			"target":34962
		},
		{
			"buffer":0,
			"byteLength":7296,
			"byteOffset":684476,
			"target":34962
		},
		{
			"buffer":0,
			"byteLength":4864,
			"byteOffset":691772,
			"target":34962
		},
		{
			"buffer":0,
			"byteLength":12744,
			"byteOffset":696636,
			"target":34962
		},
		{
			"buffer":0,
			"byteLength":12744,
			"byteOffset":709380,
			"target":34962
		},
		{
			"buffer":0,
			"byteLength":8496,
			"byteOffset":722124,
			"target":34962
		},
		{
			"buffer":0,
			"byteLength":5076,
			"byteOffset":730620,
			"target":34963
		}
	],
	"samplers":[
		{
			"magFilter":9729,
			"minFilter":9987
		}
	],
	"buffers":[
		{
			"byteLength":735696,
			"uri":"kitchen.bin"
		}
	]
}
